<?xml version="1.0" encoding="UTF-8"?>
<svg width="1200pt" height="1200pt" version="1.1" viewBox="0 0 1200 1200" xmlns="http://www.w3.org/2000/svg">
 <g>
  <path d="m787.2 433.2c0 103.39-83.812 187.2-187.2 187.2s-187.2-83.812-187.2-187.2 83.812-187.2 187.2-187.2 187.2 83.812 187.2 187.2"/>
  <path d="m600 30c-314.4 0-570 255.6-570 570s255.6 570 570 570 570-255.6 570-570-255.6-570-570-570zm286.8 951.6-40.801-178.8c-16.801-74.398-84-127.2-159.6-127.2h-171.6c-76.801 0-142.8 52.801-159.6 127.2l-40.801 178.8c-116.4-87.602-192-225.6-192-381.6 0-262.8 213.6-477.6 477.6-477.6 262.8 0 477.6 213.6 477.6 477.6 0 156-75.602 294-190.8 381.6z"/>
 </g>
</svg>
