<?xml version="1.0" encoding="utf-8"?>
<!-- Generator: Adobe Illustrator 27.5.0, SVG Export Plug-In . SVG Version: 6.00 Build 0)  -->
<svg version="1.1" id="Liniengrafik" xmlns="http://www.w3.org/2000/svg" xmlns:xlink="http://www.w3.org/1999/xlink" x="0px"
	 y="0px" viewBox="0 0 147.4 147.4" style="enable-background:new 0 0 147.4 147.4;" xml:space="preserve">
<style type="text/css">
	.st0{fill:#6D8EAB;stroke:#6D8EAB;stroke-width:0.5;stroke-miterlimit:10;}
</style>
<g>
	<g>
		<path class="st0" d="M132.9,83.6c-0.3-0.1-0.6-0.2-0.9-0.2c-3.9,0.1-8.1,0.3-11.9,0.1c-0.6-0.1-0.9-0.1-1.1-0.5v0.1l-0.2-0.8
			c-0.5-1.4-0.4-3.3-0.9-4.9c-0.1-0.6-0.6-1.5-1.3-1.8c-0.4-0.3-1.3-0.3-1.8-0.1c-0.5,0.2-0.7,0.4-0.9,0.6c-0.8,0.9-1,2.1-1.2,3
			c-0.2,1.2-0.6,3.8-0.8,5c0,0.2-0.1,0.5-0.1,0.8c-0.6-4-1.2-8-1.6-12c-0.2-1.4-0.2-2.8-1.2-4c-0.2-0.2-0.5-0.5-1-0.7
			c-0.8-0.4-1.9-0.1-2.4,0.4c-1.1,1-1.6,2.3-2,3.6c-0.1,0.1-0.1,0.1-0.1,0.1l0,0l0,0l0,0l0,0l0,0c0,0.1-0.1,0.3-0.1,0.4
			c-0.3,1.7-0.7,4.2-0.9,5.9c-0.4,2.1-0.5,4.4-1.1,6.4c-0.3-0.4-0.6-0.9-1.1-1.3c-1.2-1.1-3.3-1-4.2,0.4c-0.6,0.8-0.8,1.6-0.8,2.4
			c-0.4,0.6-0.5,1.3-0.7,2c-0.7,3.1-1.1,6.5-1.5,9.7c-2.2-11.3-4.3-22.8-5.9-34.2c-1-6.5-1.6-13-2.5-19.5c-0.4-2.6-0.7-5.1-1.6-7.7
			c-0.4-1-1.3-2.1-2.6-2c-1.1,0.2-1.4,0.5-1.9,1.2c-1.1,2.2-0.9,4.8-1.2,7c-0.4,10.7-2.2,21.9-3.8,33c-0.7,4.3-1.4,8.7-2.3,12.9
			l-0.6-2.6l-0.1-0.4c-0.8-1.2-1.9-2.7-3.6-2.7c-0.4,0-1.1,0-1.7-0.1c-0.2-2.1-0.5-5-0.7-6.9c-0.2-1.1-0.3-2.6-1.3-3.6
			c-1.1-1-2.9-0.6-3.6,0.4c-0.7,1-0.6,1.5-0.9,2.4c-0.5,2.4-1,4.9-1.5,7.2c0-0.1,0,0,0,0.1s-0.1,0.3-0.1,0.4v0.1h-0.1
			c-5.9,0.2-11.7,0.5-17.6,1.4c-0.9,0.2-0.7,1.3,0,1.4c3.5,0.5,7.1,0.8,10.6,1.1c2.2,0.1,4.4,0.2,6.6,0.3c0.7,0.1,1.5,0,2.2-0.3
			c1.1-0.5,1.7-1.2,2.2-2.1c0.4,1.1,1.1,2.2,2.4,2.5c0.4,0.1,0.7,0.1,1,0.1c0.6,0,1.5,0,2.2-0.1c0.1,0.1,0.1,0.1,0.2,0.2
			c0.2,0.8,1.8,7.2,1.9,7.9c-0.2,1.3-0.4,2.6-0.4,4c0,0.3,0.1,0.8,0.3,1.2c0.6,1.2,2.3,1.4,3.2,0.6c0.5-0.4,0.7-0.9,0.9-1.3
			c2.5-7.6,3.9-15.6,5.1-23.5c1.4-8.9,2.5-17.9,3.5-26.9c0.6,4.9,1.1,9.9,1.8,14.8c1.9,13,4.2,25.8,6.8,38.7
			c0.1,1.1,0.3,2.1,0.6,3.2c0.2,0.8,0.8,1.9,1.7,2.3c3.5,1.2,4-3.8,4.5-6c0.8-4.4,1.1-8.8,2.1-13.1c0.2-0.1,0.4-0.3,0.6-0.6
			c0.2,0.2,0.4,0.3,0.6,0.5c1.1,0.8,3,0.8,4.1-0.3c1.8-2.2,1.8-4.5,2.2-7c0.1-0.8,0.3-2,0.4-3.2c0,0.3,0.1,0.5,0.1,0.8
			c0.6,4.7,1.4,9.4,2.1,14c0.3,1.2,0.5,2.3,2,2.9c3.2,0.7,3.6-3.5,4.1-5.6c0,0,0.5-3.4,0.8-5.3c1.8,2,5.4,1.9,8,1.9
			c2,0,3.9-0.1,5.8-0.1c-1.5,4.8-3.7,9.5-6.4,13.7c-0.9,1.3-1.9,2.7-2.9,3.9l-2.1,2.5c-0.6,0.7-1.6,1.6-2.2,2.3
			c-1.5,1.5-3.2,2.9-4.8,4.3c-0.5,0.4-2.8,2.1-3.3,2.4c-1,0.6-2.5,1.5-3.4,2.1c-1.4,0.8-2.9,1.5-4.3,2.2
			c-35.7,15.7-75.5-10-75.7-49.1c-0.2-17.6,8.6-34.8,22.9-45.3c0.3-0.2,0.4-0.6,0.2-0.9s-0.6-0.4-1-0.2
			c-7.8,4.9-14.4,11.8-18.9,19.9c-25.7,47.2,20.9,99.9,71.1,81.3c2.6-1,5.6-2.4,8-3.7c1.1-0.7,2.7-1.6,3.8-2.3
			c0.5-0.4,3-2.2,3.6-2.6c1.4-1.1,2.7-2.3,4-3.5c0.6-0.6,1.8-1.9,2.4-2.5c1.9-2,4-4.6,5.5-6.9c4-5.8,6.8-12.4,8.5-19.2
			C134.9,84.7,134,83.7,132.9,83.6L132.9,83.6z M57.3,83.4L57.3,83.4L57.3,83.4C57.3,83.4,57.4,83.4,57.3,83.4z M63.7,75.8
			L63.7,75.8L63.7,75.8z M66.5,87.5C66.5,87.5,66.6,87.5,66.5,87.5L66.5,87.5z M95.4,87.8L95.4,87.8L95.4,87.8z M96.3,89.3
			c0.2,0.1,0.4,0.2,0.6,0.3C96.6,89.5,96.4,89.4,96.3,89.3z M99.6,87.4c0-0.1,0-0.2,0-0.3C100,87.3,100,87.5,99.6,87.4z"/>
		<path class="st0" d="M81,5.1C27.4,6.7-6.4,60.5,21.2,107.7c10.5,17.4,29.3,29.3,49.4,31.5c15.7,1.7,32-2.3,45-11.2
			c10-6.7,18.3-16.1,24.1-26.9c0.2-0.3,0.6-0.5,1-0.3c0.3,0.2,0.4,0.5,0.3,0.9c-4.4,11.8-12.6,22.3-23.1,29.7
			c-18.3,13.1-43.1,16.4-64.3,8.9C-4.6,119.3-10.5,40,43.9,10.6C55.2,4.7,68.4,2,81,3.8c0.4,0,0.7,0.4,0.6,0.8
			C81.6,4.8,81.3,5,81,5.1L81,5.1L81,5.1z"/>
	</g>
</g>
</svg>
